<svg width="15" height="15" viewBox="0 0 15 15" fill="none" xmlns="http://www.w3.org/2000/svg">
<g clip-path="url(#clip0_2_27)">
<path fill-rule="evenodd" clip-rule="evenodd" d="M14.9326 7.49937C14.9326 11.6047 11.6047 14.9326 7.49937 14.9326C3.39412 14.9326 0.0661621 11.6047 0.0661621 7.49937C0.0661621 3.39412 3.39412 0.0661621 7.49937 0.0661621C11.6047 0.0661621 14.9326 3.39412 14.9326 7.49937Z" fill="black"/>
<path d="M5.38027 9.49557C5.51568 9.49557 5.64416 9.48353 5.76503 9.45633C5.88773 9.42955 5.99657 9.387 6.08833 9.32409C6.18006 9.26379 6.2561 9.18085 6.31133 9.0755C6.36677 8.97108 6.39334 8.83562 6.39334 8.67152C6.39334 8.35027 6.303 8.12243 6.12321 7.98377C5.9432 7.84747 5.7031 7.77949 5.40776 7.77949H3.91608V9.49557H5.38027ZM5.30447 6.84269C5.54757 6.84269 5.74884 6.78516 5.90829 6.66799C6.06613 6.5529 6.14263 6.36248 6.14263 6.10136C6.14263 5.95623 6.11722 5.83653 6.06613 5.74363C6.01321 5.65049 5.9432 5.5777 5.85469 5.52688C5.76688 5.47372 5.66773 5.43722 5.55265 5.41734C5.43966 5.39514 5.3211 5.3866 5.19978 5.3866H3.91608V6.84269L5.30447 6.84269ZM5.48195 4.3252C5.78005 4.3252 6.04903 4.35085 6.29491 4.40424C6.53939 4.456 6.74809 4.54242 6.92441 4.66121C7.09796 4.77999 7.23383 4.93759 7.33111 5.13657C7.42609 5.33229 7.4737 5.5777 7.4737 5.86773C7.4737 6.18131 7.40252 6.44337 7.26016 6.65297C7.11666 6.86212 6.90592 7.03357 6.62421 7.1669C7.00782 7.27715 7.29182 7.47126 7.48017 7.74721C7.66938 8.02518 7.76208 8.35774 7.76208 8.7475C7.76208 9.06346 7.70156 9.33572 7.58064 9.56449C7.45869 9.79596 7.29254 9.98383 7.08779 10.1287C6.88141 10.2748 6.64432 10.3821 6.3788 10.4519C6.11629 10.5216 5.8436 10.5568 5.56444 10.5568H2.54388V4.3252H5.48195L5.48195 4.3252Z" fill="white"/>
<path d="M11.1421 7.10386C10.9949 6.94094 10.7452 6.85268 10.4409 6.85268C10.2429 6.85268 10.0791 6.88595 9.94776 6.95388C9.81947 7.02089 9.71432 7.10433 9.63398 7.20253C9.55395 7.30238 9.49946 7.40775 9.4678 7.52053C9.43594 7.63004 9.41694 7.72989 9.41123 7.81771H11.4277C11.3981 7.50185 11.29 7.26815 11.1421 7.10386L11.1421 7.10386ZM9.71806 9.47462C9.90365 9.65575 10.172 9.74709 10.5195 9.74709C10.7695 9.74709 10.9856 9.68398 11.1668 9.55776C11.3463 9.43206 11.4556 9.29754 11.4979 9.15804H12.5893C12.414 9.7011 12.1477 10.0889 11.7847 10.3222C11.4258 10.5566 10.9881 10.6735 10.4782 10.6735C10.1227 10.6735 9.80286 10.616 9.51566 10.5025C9.22866 10.3878 8.98878 10.227 8.787 10.0174C8.5903 9.80687 8.43762 9.55776 8.32873 9.26547C8.22109 8.97452 8.16681 8.65265 8.16681 8.30368C8.16681 7.96624 8.22317 7.65111 8.3334 7.35969C8.44592 7.06759 8.60141 6.81523 8.80599 6.60357C9.01099 6.39095 9.25398 6.22318 9.53714 6.10048C9.8202 5.97823 10.1324 5.91675 10.4782 5.91675C10.8598 5.91675 11.1943 5.99026 11.4808 6.14C11.7664 6.28742 12.0006 6.48754 12.1845 6.73804C12.3684 6.98786 12.4992 7.27371 12.581 7.59444C12.6622 7.91434 12.6906 8.24888 12.6673 8.59878H9.41123C9.41123 8.95553 9.53174 9.29339 9.71806 9.47462Z" fill="white"/>
<path d="M11.6837 4.74292H9.15765V5.35807H11.6837V4.74292Z" fill="white"/>
</g>
<defs>
<clipPath id="clip0_2_27">
<rect width="15" height="15" fill="white"/>
</clipPath>
</defs>
</svg>
